<?xml version="1.0"?>
<svg width="1280" height="968" xmlns="http://www.w3.org/2000/svg" xmlns:svg="http://www.w3.org/2000/svg" preserveAspectRatio="xMidYMid meet">
 <metadata>Created by potrace 1.15, written by Peter Selinger 2001-2017</metadata>
 <g class="layer">
  <title>Layer 1</title>
  <g fill="#3f51b5" id="svg_1" transform="translate(0 968) scale(0.1 -0.1)">
   <path d="m8965,9673c-269,-34 -484,-132 -659,-302c-224,-216 -338,-486 -338,-801c0,-298 101,-552 306,-769c420,-443 1136,-450 1569,-13c170,170 273,374 311,614c20,124 20,212 0,336c-59,374 -294,683 -637,842c-165,76 -390,114 -552,93z" fill="#3161a4" id="svg_4"/>
   <path d="m11571,9669c-349,-45 -642,-231 -816,-520c-80,-132 -124,-257 -150,-424c-41,-259 19,-530 170,-761c258,-397 731,-581 1195,-465c412,104 734,454 811,881c15,83 15,296 0,380c-60,337 -283,640 -586,797c-186,96 -423,138 -624,112z" fill="#3161a4" id="svg_5"/>
   <path d="m6235,9659c-313,-56 -577,-223 -737,-466c-90,-134 -153,-289 -179,-433c-17,-97 -14,-310 6,-405c70,-333 288,-619 585,-770c445,-225 1023,-106 1334,274c370,453 343,1082 -65,1490c-164,164 -359,266 -584,305c-97,17 -278,19 -360,5z" fill="#3161a4" id="svg_6"/>
   <path d="m3655,7150c-367,-37 -702,-267 -866,-592c-73,-145 -103,-249 -117,-403c-31,-332 83,-649 318,-884c161,-161 356,-263 585,-306c117,-22 344,-16 455,13c422,109 734,434 821,857c30,142 23,367 -15,504c-112,404 -442,714 -846,794c-99,20 -236,27 -335,17z" fill="#3161a4" id="svg_8"/>
   <path d="m6282,7150c-291,-30 -578,-194 -762,-436c-72,-95 -154,-268 -186,-389c-35,-136 -43,-314 -20,-448c74,-437 385,-779 813,-894c89,-24 115,-27 278,-27c164,0 189,2 280,27c755,204 1069,1102 604,1727c-234,314 -613,480 -1007,440z" fill="#3161a4" id="svg_9"/>
   <path d="m8900,7145c-471,-74 -838,-435 -921,-905c-16,-94 -14,-311 5,-398c81,-373 324,-675 653,-811c156,-64 222,-76 423,-76c163,0 196,3 275,24c268,70 493,229 640,451c161,241 223,515 180,786c-30,186 -101,356 -205,495c-61,81 -197,212 -273,262c-231,153 -507,214 -777,172z" fill="#3161a4" id="svg_10"/>
   <path d="m11570,7149c-359,-39 -687,-265 -854,-587c-327,-634 11,-1393 702,-1580c88,-23 114,-26 277,-26c164,0 189,2 280,27c374,101 673,393 779,759c145,506 -79,1037 -544,1286c-184,99 -424,144 -640,121z" fill="#3161a4" id="svg_11"/>
   <path d="m930,4675c-127,-23 -191,-43 -305,-99c-218,-107 -381,-263 -491,-471c-164,-308 -177,-656 -36,-970c139,-310 403,-532 740,-623c87,-23 115,-26 267,-26c151,0 181,3 266,26c205,56 372,150 515,292c142,143 237,310 292,515c22,83 25,118 26,256c1,184 -12,259 -75,421c-117,301 -394,554 -710,649c-147,43 -343,55 -489,30z" fill="#3161a4" id="svg_12"/>
   <path d="m3606,4680c-223,-36 -459,-154 -616,-310c-113,-114 -212,-275 -265,-434c-74,-221 -74,-481 0,-702c95,-282 320,-537 578,-654c310,-140 660,-133 966,19c277,137 494,411 570,721c52,215 41,424 -35,642c-116,333 -413,605 -759,694c-112,29 -330,41 -439,24z" fill="#3161a4" id="svg_13"/>
   <path d="m6217,4675c-457,-87 -792,-412 -894,-869c-21,-97 -21,-345 1,-443c59,-269 208,-505 420,-665c285,-215 673,-276 1020,-158c221,75 400,209 538,405c256,362 272,835 42,1215c-150,248 -395,429 -679,500c-117,29 -334,36 -448,15z" fill="#3161a4" id="svg_14"/>
   <path d="m8906,4680c-412,-65 -751,-348 -881,-734c-44,-130 -56,-212 -56,-361c-1,-309 107,-570 326,-789c95,-95 187,-159 310,-217c242,-114 555,-130 815,-43c500,168 816,688 736,1209c-61,396 -335,739 -698,875c-120,45 -210,61 -353,65c-77,2 -167,0 -199,-5z" fill="#3161a4" id="svg_15"/>
   <path d="m986,2209c-462,-53 -837,-382 -950,-830c-39,-159 -39,-379 0,-538c79,-313 307,-594 596,-731c422,-200 926,-112 1255,219c163,165 269,376 307,613c33,201 8,401 -73,596c-153,368 -498,627 -894,671c-106,12 -140,12 -241,0z" fill="#3161a4" id="svg_17"/>
   <path d="m3650,2209c-449,-46 -829,-373 -945,-814c-43,-163 -46,-396 -7,-546c87,-335 317,-614 617,-749c534,-239 1171,-17 1430,499c85,168 125,334 125,511c0,566 -427,1040 -990,1100c-106,11 -111,11 -230,-1z" fill="#3161a4" id="svg_18"/>
   <path d="m6283,2209c-759,-88 -1201,-896 -868,-1585c78,-161 234,-342 377,-437c527,-348 1236,-185 1560,358c83,139 129,284 149,465c35,326 -102,683 -350,912c-177,163 -389,261 -624,287c-107,12 -140,12 -244,0z" fill="#3161a4" id="svg_19"/>
  </g>
 </g>
</svg>